<svg width="256" height="256" viewBox="0 0 256 256" fill="none" xmlns="http://www.w3.org/2000/svg" role="img" aria-labelledby="title desc">
  <title id="title">Reader owl icon</title>
  <desc id="desc">A friendly animal-island style owl icon holding a parchment book.</desc>
  <path d="M40 128c0-55 39-94 88-94s88 39 88 94c0 49-37 88-88 88s-88-39-88-88Z" fill="#F7F3DF" stroke="#4C3C33" stroke-width="12" stroke-linejoin="round"/>
  <path d="M67 82c-6-23 6-41 28-52 15 18 16 36 2 56" fill="#82D5BB" stroke="#4C3C33" stroke-width="10" stroke-linejoin="round"/>
  <path d="M189 82c6-23-6-41-28-52-15 18-16 36-2 56" fill="#82D5BB" stroke="#4C3C33" stroke-width="10" stroke-linejoin="round"/>
  <circle cx="94" cy="110" r="27" fill="#FFF9E3" stroke="#4C3C33" stroke-width="9"/>
  <circle cx="162" cy="110" r="27" fill="#FFF9E3" stroke="#4C3C33" stroke-width="9"/>
  <circle cx="99" cy="115" r="10" fill="#4C3C33"/>
  <circle cx="157" cy="115" r="10" fill="#4C3C33"/>
  <path d="M128 127l15 18h-30l15-18Z" fill="#F7CD67" stroke="#4C3C33" stroke-width="8" stroke-linejoin="round"/>
  <path d="M60 155c19-12 46-9 68 7 22-16 49-19 68-7v58c-20-12-47-9-68 7-21-16-48-19-68-7v-58Z" fill="#FFF9E3" stroke="#4C3C33" stroke-width="10" stroke-linejoin="round"/>
  <path d="M128 162v58" stroke="#D4C9B4" stroke-width="6" stroke-linecap="round"/>
  <path d="M78 174c12-4 23-3 34 2M78 193c12-4 23-3 34 2M144 176c11-5 22-6 34-2M144 195c11-5 22-6 34-2" stroke="#725D42" stroke-width="6" stroke-linecap="round" opacity=".72"/>
  <path d="M203 36c21 2 33 17 27 38-22-1-34-17-27-38Z" fill="#6FBA2C" stroke="#4C3C33" stroke-width="8" stroke-linejoin="round"/>
  <path d="M213 49c-8 7-14 14-19 24" stroke="#409B5E" stroke-width="5" stroke-linecap="round"/>
</svg>
