<svg xmlns="http://www.w3.org/2000/svg" viewBox="0 0 1080 1920" role="img" aria-labelledby="title desc">
  <title id="title">Animal island mobile wallpaper</title>
  <desc id="desc">A portrait animal-island wallpaper with parchment sky, soft hills, trees, waves, and floating leaves.</desc>
  <defs>
    <linearGradient id="sky" x1="0" x2="0" y1="0" y2="1">
      <stop offset="0" stop-color="#fff9e3"/>
      <stop offset="0.54" stop-color="#f8f8f0"/>
      <stop offset="1" stop-color="#d6f0d4"/>
    </linearGradient>
    <linearGradient id="water" x1="0" x2="1" y1="0" y2="0">
      <stop offset="0" stop-color="#98d2e3"/>
      <stop offset="0.55" stop-color="#82d5bb"/>
      <stop offset="1" stop-color="#327a93"/>
    </linearGradient>
    <filter id="paperNoise">
      <feTurbulence type="fractalNoise" baseFrequency="0.014" numOctaves="4" seed="28"/>
      <feColorMatrix type="saturate" values="0.35"/>
      <feComponentTransfer>
        <feFuncA type="table" tableValues="0 0.13"/>
      </feComponentTransfer>
      <feBlend in="SourceGraphic" mode="multiply"/>
    </filter>
    <pattern id="leafDots" width="96" height="96" patternUnits="userSpaceOnUse">
      <path d="M24 24c18-16 36-12 47 6-18 16-36 14-47-6Z" fill="#19c8b9" opacity="0.08"/>
      <path d="M62 68c12-14 26-14 38-2-12 13-27 14-38 2Z" fill="#6fba2c" opacity="0.08"/>
      <circle cx="18" cy="72" r="4" fill="#f7cd67" opacity="0.14"/>
    </pattern>
    <path id="tree" d="M0 0c-34 0-61 28-61 62 0 24 14 45 34 55-4 9-6 18-6 28 0 36 29 65 65 65s65-29 65-65c0-12-3-24-9-34 16-12 26-31 26-52 0-36-29-65-65-65-13 0-25 4-35 10A61 61 0 0 0 0 0Z"/>
  </defs>
  <rect width="1080" height="1920" fill="url(#sky)" filter="url(#paperNoise)"/>
  <rect width="1080" height="1920" fill="url(#leafDots)"/>
  <circle cx="820" cy="236" r="150" fill="#f7cd67" opacity="0.48"/>
  <g opacity="0.7">
    <path d="M-50 1054c144-118 294-154 450-108 104 31 202 88 316 72 130-18 234-102 370-74v976H-50Z" fill="#bde5bb"/>
    <path d="M-50 1208c166-86 314-102 444-48 132 55 246 112 394 52 122-50 228-44 318 18v690H-50Z" fill="#8ac68a"/>
    <path d="M-50 1434c218-70 414-58 588 36 116 63 230 78 342 44 84-26 162-24 234 6v400H-50Z" fill="#6fba2c"/>
  </g>
  <g transform="translate(206 900)" opacity="0.9">
    <use href="#tree" fill="#82d5bb"/>
    <rect x="-11" y="172" width="22" height="94" rx="11" fill="#9a835a"/>
  </g>
  <g transform="translate(850 960) scale(.78)" opacity="0.88">
    <use href="#tree" fill="#8ac68a"/>
    <rect x="-10" y="172" width="20" height="90" rx="10" fill="#9a835a"/>
  </g>
  <g transform="translate(552 760) scale(.8)" opacity="0.9">
    <path d="M-148 86c28-90 94-143 184-147 78-3 144 34 182 103 65 2 120 48 138 112H-220c12-32 36-56 72-68Z" fill="#f7f3df" stroke="#d8c9ad" stroke-width="8"/>
    <path d="M-116 84c44-58 106-82 186-72M78 12c42 12 76 39 102 82" fill="none" stroke="#bdaea0" stroke-width="7" stroke-linecap="round" opacity="0.72"/>
    <circle cx="-48" cy="84" r="16" fill="#f8a6b2"/>
    <circle cx="82" cy="78" r="16" fill="#82d5bb"/>
    <path d="M-10 84c18 20 38 20 60 0" fill="none" stroke="#725d42" stroke-width="8" stroke-linecap="round"/>
  </g>
  <g opacity="0.86">
    <path d="M0 1648c90 34 180 34 270 0s180-34 270 0 180 34 270 0 180-34 270 0v272H0Z" fill="url(#water)"/>
    <path d="M0 1674c90 34 180 34 270 0s180-34 270 0 180 34 270 0 180-34 270 0" fill="none" stroke="#fff9e3" stroke-width="10" stroke-linecap="round" opacity="0.72"/>
  </g>
  <g fill="#f7cd67" opacity="0.82">
    <path d="M176 342c38-32 76-28 104 14-39 33-80 28-104-14Z"/>
    <path d="M758 520c26-22 54-19 74 10-28 24-56 20-74-10Z"/>
    <path d="M602 312c20-18 42-16 58 8-21 18-44 16-58-8Z"/>
  </g>
</svg>
